<?xml version="1.0" encoding="utf-8"?>
<!-- Generator: Adobe Illustrator 16.0.0, SVG Export Plug-In . SVG Version: 6.00 Build 0)  -->
<!DOCTYPE svg PUBLIC "-//W3C//DTD SVG 1.1//EN" "http://www.w3.org/Graphics/SVG/1.1/DTD/svg11.dtd">
<svg version="1.1" id="Layer_1" xmlns="http://www.w3.org/2000/svg" xmlns:xlink="http://www.w3.org/1999/xlink" x="0px" y="0px"
	 width="180px" height="80px" viewBox="0 0 180 80" enable-background="new 0 0 180 80" xml:space="preserve">
<g>
	<path fill="#005289" d="M87.974,20.431c3.333,0,6.042-2.734,6.042-6.093c0-3.364-2.709-6.096-6.042-6.096
		c-3.353,0-6.033,2.732-6.033,6.096C81.94,17.697,84.621,20.431,87.974,20.431"/>
	<polygon fill="#00A79F" points="18.338,45.047 29.012,25.737 37.906,25.737 19.468,57.514 13.1,57.514 4.854,25.737 13.765,25.737 
			"/>
	<path fill="#00A79F" d="M51.171,47.994H35.152c-0.484,3.107,0.88,4.8,4.015,4.8c1.637,0,2.88-0.546,3.944-1.979h7.288
		c-1.987,5.109-7.159,7.425-12.042,7.425c-7.112,0-11.773-4.054-10.606-11.509c1.124-7.218,6.712-11.55,13.654-11.55
		c7.462,0,11.047,4.628,9.891,12.011L51.171,47.994z M44.791,43.568c-0.046-2.062-1.702-3.419-3.739-3.419
		c-2.245,0-4.261,1.184-5.092,3.419H44.791z"/>
	<path fill="#00A79F" d="M60.821,39.44h0.089c1.874-2.66,4.561-3.827,7.526-3.827h1.468l-1.177,7.362
		c-0.939-0.594-1.946-0.711-3.094-0.711c-4.233,0-5.708,2.836-6.284,6.533l-1.381,8.717h-7.602l3.396-21.605h7.599L60.821,39.44z"/>
	<path fill="#00A79F" d="M91.325,57.514h-7.59l0.388-2.385h-0.101c-1.676,2.133-4.459,3.107-6.961,3.107
		c-6.341,0-9.997-5.353-9.012-11.551c0.979-6.199,6.18-11.509,12.542-11.509c2.473,0,4.914,0.938,6.203,2.827l0.328-2.098h7.612
		L91.325,57.514z M75.905,46.73c-0.44,2.746,1.031,4.852,4.126,4.852c3.097,0,5.196-2.105,5.658-4.852
		c0.396-2.66-1.031-4.885-4.133-4.885C78.473,41.846,76.31,44.07,75.905,46.73"/>
	<polygon fill="#00A79F" points="101.907,57.514 94.305,57.514 96.689,42.213 94.202,42.213 95.229,35.908 97.699,35.908 
		98.725,29.404 106.32,29.404 105.311,35.908 109.607,35.908 108.604,42.213 104.32,42.213 	"/>
	<path fill="#00A79F" d="M133.182,46.809c-1.139,7.34-7.822,11.515-14.719,11.515c-6.855,0-12.273-4.134-11.104-11.515
		c1.168-7.37,7.82-11.541,14.732-11.541C128.965,35.268,134.352,39.439,133.182,46.809 M115.374,46.809
		c-0.42,2.732,1.03,4.851,4.135,4.851c3.095,0,5.235-2.117,5.642-4.851c0.438-2.666-1.017-4.877-4.11-4.877
		C117.95,41.932,115.803,44.143,115.374,46.809"/>
	<path fill="#00A79F" d="M143.096,35.962l-1.82,11.563c-0.414,2.742-0.068,4.678,3.076,4.678c3.123,0,4.097-1.936,4.524-4.678
		l1.819-11.563h7.611l-2.055,13.044c-1.111,7.113-6.428,9.318-12.857,9.318c-6.443,0-11.064-2.205-9.945-9.318l2.046-13.044H143.096
		z"/>
	<path fill="#00A79F" d="M166.062,39.512h0.078c1.881-2.651,4.588-3.836,7.557-3.836h1.449l-1.176,7.4
		c-0.938-0.584-1.914-0.744-3.078-0.744c-4.256,0-5.711,2.852-6.281,6.541l-1.383,8.725h-7.611l3.388-21.636h7.623L166.062,39.512z"
		/>
	<path fill="#00A79F" d="M78.803,18.593c0,0,4.854,12.261,15.724,8.644c0,0,3.433-0.573,9.201-6.166c0,0,4.406-4.066,7.959-2.884
		c0,0-6.344-3.823-14.553,1.125C97.135,19.312,88.102,26.236,78.803,18.593"/>
	<path fill="#00A79F" d="M97.896,9.825c0,0-4.851-12.256-15.725-8.625c0,0-3.433,0.56-9.205,6.164c0,0-4.407,4.05-7.967,2.872
		c0,0,6.358,3.813,14.578-1.109C79.578,9.127,88.585,2.192,97.896,9.825"/>
</g>
</svg>
